<mxfile host="www.draw.io" modified="2020-01-10T15:23:02.270Z" agent="Mozilla/5.0 (Windows NT 10.0; Win64; x64) AppleWebKit/537.36 (KHTML, like Gecko) Chrome/79.0.3945.117 Safari/537.36" etag="V5yXJUGQwimgEDrrMx__" version="12.5.1" type="github">
  <diagram id="DRUTqslgJywgA-yeCbnr" name="Page-1">
    <mxGraphModel dx="1182" dy="683" grid="1" gridSize="10" guides="1" tooltips="1" connect="1" arrows="1" fold="1" page="1" pageScale="1" pageWidth="827" pageHeight="1169" math="0" shadow="0">
      <root>
        <mxCell id="0"/>
        <mxCell id="1" parent="0"/>
        <mxCell id="5rpIBblbzFWk3r73EX7g-2" value="" style="endArrow=classic;html=1;" parent="1" edge="1">
          <mxGeometry width="50" height="50" relative="1" as="geometry">
            <mxPoint x="110" y="200" as="sourcePoint"/>
            <mxPoint x="200" y="160" as="targetPoint"/>
          </mxGeometry>
        </mxCell>
        <mxCell id="5rpIBblbzFWk3r73EX7g-3" value="" style="endArrow=classic;html=1;" parent="1" edge="1">
          <mxGeometry width="50" height="50" relative="1" as="geometry">
            <mxPoint x="330" y="200" as="sourcePoint"/>
            <mxPoint x="420" y="160" as="targetPoint"/>
          </mxGeometry>
        </mxCell>
        <mxCell id="5rpIBblbzFWk3r73EX7g-4" value="" style="endArrow=classic;html=1;" parent="1" edge="1">
          <mxGeometry width="50" height="50" relative="1" as="geometry">
            <mxPoint x="220" y="160" as="sourcePoint"/>
            <mxPoint x="310" y="200" as="targetPoint"/>
          </mxGeometry>
        </mxCell>
        <mxCell id="5rpIBblbzFWk3r73EX7g-5" value="" style="endArrow=classic;html=1;" parent="1" edge="1">
          <mxGeometry width="50" height="50" relative="1" as="geometry">
            <mxPoint x="440" y="160" as="sourcePoint"/>
            <mxPoint x="530" y="200" as="targetPoint"/>
          </mxGeometry>
        </mxCell>
        <mxCell id="5rpIBblbzFWk3r73EX7g-6" value="" style="endArrow=classic;html=1;" parent="1" edge="1">
          <mxGeometry width="50" height="50" relative="1" as="geometry">
            <mxPoint x="660" y="160" as="sourcePoint"/>
            <mxPoint x="750" y="200" as="targetPoint"/>
          </mxGeometry>
        </mxCell>
        <mxCell id="5rpIBblbzFWk3r73EX7g-10" value="" style="ellipse;whiteSpace=wrap;html=1;aspect=fixed;" parent="1" vertex="1">
          <mxGeometry x="200" y="150" width="20" height="20" as="geometry"/>
        </mxCell>
        <mxCell id="5rpIBblbzFWk3r73EX7g-11" value="" style="ellipse;whiteSpace=wrap;html=1;aspect=fixed;" parent="1" vertex="1">
          <mxGeometry x="310" y="190" width="20" height="20" as="geometry"/>
        </mxCell>
        <mxCell id="5rpIBblbzFWk3r73EX7g-12" value="" style="ellipse;whiteSpace=wrap;html=1;aspect=fixed;" parent="1" vertex="1">
          <mxGeometry x="420" y="150" width="20" height="20" as="geometry"/>
        </mxCell>
        <mxCell id="5rpIBblbzFWk3r73EX7g-14" value="" style="ellipse;whiteSpace=wrap;html=1;aspect=fixed;" parent="1" vertex="1">
          <mxGeometry x="530" y="190" width="20" height="20" as="geometry"/>
        </mxCell>
        <mxCell id="5rpIBblbzFWk3r73EX7g-15" value="" style="endArrow=classic;html=1;" parent="1" edge="1">
          <mxGeometry width="50" height="50" relative="1" as="geometry">
            <mxPoint x="550" y="200" as="sourcePoint"/>
            <mxPoint x="640" y="160" as="targetPoint"/>
          </mxGeometry>
        </mxCell>
        <mxCell id="5rpIBblbzFWk3r73EX7g-16" value="" style="ellipse;whiteSpace=wrap;html=1;aspect=fixed;" parent="1" vertex="1">
          <mxGeometry x="640" y="150" width="20" height="20" as="geometry"/>
        </mxCell>
        <mxCell id="5rpIBblbzFWk3r73EX7g-17" value="" style="ellipse;whiteSpace=wrap;html=1;aspect=fixed;" parent="1" vertex="1">
          <mxGeometry x="750" y="190" width="20" height="20" as="geometry"/>
        </mxCell>
        <mxCell id="5rpIBblbzFWk3r73EX7g-19" value="&lt;font style=&quot;font-size: 19px&quot;&gt;prev s&lt;/font&gt;" style="text;html=1;strokeColor=none;fillColor=none;align=center;verticalAlign=middle;whiteSpace=wrap;rounded=0;" parent="1" vertex="1">
          <mxGeometry x="180" y="130" width="60" height="20" as="geometry"/>
        </mxCell>
        <mxCell id="5rpIBblbzFWk3r73EX7g-20" value="&lt;font style=&quot;font-size: 19px&quot;&gt;prev a&lt;/font&gt;" style="text;html=1;strokeColor=none;fillColor=none;align=center;verticalAlign=middle;whiteSpace=wrap;rounded=0;" parent="1" vertex="1">
          <mxGeometry x="210" y="180" width="60" height="20" as="geometry"/>
        </mxCell>
        <mxCell id="5rpIBblbzFWk3r73EX7g-23" value="" style="curved=1;endArrow=classic;html=1;strokeColor=#FF3333;" parent="1" edge="1">
          <mxGeometry width="50" height="50" relative="1" as="geometry">
            <mxPoint x="270" y="180" as="sourcePoint"/>
            <mxPoint x="280" y="130" as="targetPoint"/>
            <Array as="points">
              <mxPoint x="280" y="180"/>
              <mxPoint x="260" y="150"/>
            </Array>
          </mxGeometry>
        </mxCell>
        <mxCell id="5rpIBblbzFWk3r73EX7g-24" value="" style="curved=1;endArrow=classic;html=1;strokeColor=#FF3333;" parent="1" edge="1">
          <mxGeometry width="50" height="50" relative="1" as="geometry">
            <mxPoint x="360" y="185" as="sourcePoint"/>
            <mxPoint x="370" y="135" as="targetPoint"/>
            <Array as="points">
              <mxPoint x="370" y="185"/>
              <mxPoint x="350" y="155"/>
            </Array>
          </mxGeometry>
        </mxCell>
        <mxCell id="5rpIBblbzFWk3r73EX7g-25" value="" style="curved=1;endArrow=classic;html=1;" parent="1" edge="1">
          <mxGeometry width="50" height="50" relative="1" as="geometry">
            <mxPoint x="500" y="185" as="sourcePoint"/>
            <mxPoint x="510" y="135" as="targetPoint"/>
            <Array as="points">
              <mxPoint x="510" y="185"/>
              <mxPoint x="490" y="155"/>
            </Array>
          </mxGeometry>
        </mxCell>
        <mxCell id="5rpIBblbzFWk3r73EX7g-26" value="" style="curved=1;endArrow=classic;html=1;strokeColor=#FF3333;" parent="1" edge="1">
          <mxGeometry width="50" height="50" relative="1" as="geometry">
            <mxPoint x="580" y="185" as="sourcePoint"/>
            <mxPoint x="590" y="135" as="targetPoint"/>
            <Array as="points">
              <mxPoint x="590" y="185"/>
              <mxPoint x="570" y="155"/>
            </Array>
          </mxGeometry>
        </mxCell>
        <mxCell id="5rpIBblbzFWk3r73EX7g-27" value="" style="curved=1;endArrow=classic;html=1;strokeColor=#FF3333;" parent="1" edge="1">
          <mxGeometry width="50" height="50" relative="1" as="geometry">
            <mxPoint x="720" y="185" as="sourcePoint"/>
            <mxPoint x="730" y="135" as="targetPoint"/>
            <Array as="points">
              <mxPoint x="730" y="185"/>
              <mxPoint x="710" y="155"/>
            </Array>
          </mxGeometry>
        </mxCell>
        <mxCell id="5rpIBblbzFWk3r73EX7g-28" value="&lt;font style=&quot;font-size: 20px&quot;&gt;s&lt;/font&gt;" style="text;html=1;strokeColor=none;fillColor=none;align=center;verticalAlign=middle;whiteSpace=wrap;rounded=0;" parent="1" vertex="1">
          <mxGeometry x="300" y="170" width="40" height="20" as="geometry"/>
        </mxCell>
        <mxCell id="5rpIBblbzFWk3r73EX7g-29" value="&lt;font style=&quot;font-size: 20px&quot;&gt;a&lt;/font&gt;" style="text;html=1;strokeColor=none;fillColor=none;align=center;verticalAlign=middle;whiteSpace=wrap;rounded=0;" parent="1" vertex="1">
          <mxGeometry x="360" y="180" width="40" height="20" as="geometry"/>
        </mxCell>
        <mxCell id="5rpIBblbzFWk3r73EX7g-30" value="&lt;font style=&quot;font-size: 20px&quot;&gt;s_1&lt;/font&gt;&lt;span style=&quot;color: rgba(0 , 0 , 0 , 0) ; font-family: monospace ; font-size: 0px ; white-space: nowrap&quot;&gt;%3CmxGraphModel%3E%3Croot%3E%3CmxCell%20id%3D%220%22%2F%3E%3CmxCell%20id%3D%221%22%20parent%3D%220%22%2F%3E%3CmxCell%20id%3D%222%22%20value%3D%22%26lt%3Bfont%20style%3D%26quot%3Bfont-size%3A%2020px%26quot%3B%26gt%3Bs%26lt%3B%2Ffont%26gt%3B%22%20style%3D%22text%3Bhtml%3D1%3BstrokeColor%3Dnone%3BfillColor%3Dnone%3Balign%3Dcenter%3BverticalAlign%3Dmiddle%3BwhiteSpace%3Dwrap%3Brounded%3D0%3B%22%20vertex%3D%221%22%20parent%3D%221%22%3E%3CmxGeometry%20x%3D%22300%22%20y%3D%22170%22%20width%3D%2240%22%20height%3D%2220%22%20as%3D%22geometry%22%2F%3E%3C%2FmxCell%3E%3C%2Froot%3E%3C%2FmxGraphModel%3E&lt;/span&gt;" style="text;html=1;strokeColor=none;fillColor=none;align=center;verticalAlign=middle;whiteSpace=wrap;rounded=0;" parent="1" vertex="1">
          <mxGeometry x="410" y="130" width="40" height="20" as="geometry"/>
        </mxCell>
        <mxCell id="5rpIBblbzFWk3r73EX7g-31" value="&lt;font style=&quot;font-size: 20px&quot;&gt;a_1&lt;/font&gt;&lt;span style=&quot;color: rgba(0 , 0 , 0 , 0) ; font-family: monospace ; font-size: 0px ; white-space: nowrap&quot;&gt;%3CmxGraphModel%3E%3Croot%3E%3CmxCell%20id%3D%220%22%2F%3E%3CmxCell%20id%3D%221%22%20parent%3D%220%22%2F%3E%3CmxCell%20id%3D%222%22%20value%3D%22%26lt%3Bfont%20style%3D%26quot%3Bfont-size%3A%2020px%26quot%3B%26gt%3Bs%26lt%3B%2Ffont%26gt%3B%22%20style%3D%22text%3Bhtml%3D1%3BstrokeColor%3Dnone%3BfillColor%3Dnone%3Balign%3Dcenter%3BverticalAlign%3Dmiddle%3BwhiteSpace%3Dwrap%3Brounded%3D0%3B%22%20vertex%3D%221%22%20parent%3D%221%22%3E%3CmxGeometry%20x%3D%22300%22%20y%3D%22170%22%20width%3D%2240%22%20height%3D%2220%22%20as%3D%22geometry%22%2F%3E%3C%2FmxCell%3E%3C%2Froot%3E%3C%2FmxGraphModel%3E&lt;/span&gt;" style="text;html=1;strokeColor=none;fillColor=none;align=center;verticalAlign=middle;whiteSpace=wrap;rounded=0;" parent="1" vertex="1">
          <mxGeometry x="450" y="180" width="40" height="20" as="geometry"/>
        </mxCell>
        <mxCell id="5rpIBblbzFWk3r73EX7g-37" value="&lt;font style=&quot;font-size: 20px&quot;&gt;a_2&lt;/font&gt;&lt;span style=&quot;color: rgba(0 , 0 , 0 , 0) ; font-family: monospace ; font-size: 0px ; white-space: nowrap&quot;&gt;%3CmxGraphModel%3E%3Croot%3E%3CmxCell%20id%3D%220%22%2F%3E%3CmxCell%20id%3D%221%22%20parent%3D%220%22%2F%3E%3CmxCell%20id%3D%222%22%20value%3D%22%26lt%3Bfont%20style%3D%26quot%3Bfont-size%3A%2020px%26quot%3B%26gt%3Bs%26lt%3B%2Ffont%26gt%3B%22%20style%3D%22text%3Bhtml%3D1%3BstrokeColor%3Dnone%3BfillColor%3Dnone%3Balign%3Dcenter%3BverticalAlign%3Dmiddle%3BwhiteSpace%3Dwrap%3Brounded%3D0%3B%22%20vertex%3D%221%22%20parent%3D%221%22%3E%3CmxGeometry%20x%3D%22300%22%20y%3D%22170%22%20width%3D%2240%22%20height%3D%2220%22%20as%3D%22geometry%22%2F%3E%3C%2FmxCell%3E%3C%2Froot%3E%3C%2FmxGraphModel%32&lt;/span&gt;" style="text;html=1;strokeColor=none;fillColor=none;align=center;verticalAlign=middle;whiteSpace=wrap;rounded=0;" parent="1" vertex="1">
          <mxGeometry x="590" y="180" width="40" height="20" as="geometry"/>
        </mxCell>
        <mxCell id="5rpIBblbzFWk3r73EX7g-38" value="&lt;font style=&quot;font-size: 20px&quot;&gt;s_2&lt;/font&gt;&lt;span style=&quot;color: rgba(0 , 0 , 0 , 0) ; font-family: monospace ; font-size: 0px ; white-space: nowrap&quot;&gt;%3CmxGraphModel%3E%3Croot%3E%3CmxCell%20id%3D%220%22%2F%3E%3CmxCell%20id%3D%221%22%20parent%3D%220%22%2F%3E%3CmxCell%20id%3D%222%22%20value%3D%22%26lt%3Bfont%20style%3D%26quot%3Bfont-size%3A%2020px%26quot%3B%26gt%3Bs%26lt%3B%2Ffont%26gt%3B%22%20style%3D%22text%3Bhtml%3D1%3BstrokeColor%3Dnone%3BfillColor%3Dnone%3Balign%3Dcenter%3BverticalAlign%3Dmiddle%3BwhiteSpace%3Dwrap%3Brounded%3D0%3B%22%20vertex%3D%221%22%20parent%3D%221%22%3E%3CmxGeometry%20x%3D%22300%22%20y%3D%22170%22%20width%3D%2240%22%20height%3D%2220%22%20as%3D%22geometry%22%2F%3E%3C%2FmxCell%3E%3C%2Froot%3E%3C%2FmxGraphModel%2&lt;/span&gt;" style="text;html=1;strokeColor=none;fillColor=none;align=center;verticalAlign=middle;whiteSpace=wrap;rounded=0;" parent="1" vertex="1">
          <mxGeometry x="520" y="170" width="40" height="20" as="geometry"/>
        </mxCell>
        <mxCell id="5rpIBblbzFWk3r73EX7g-39" value="&lt;font style=&quot;font-size: 20px&quot;&gt;s_3&lt;/font&gt;&lt;span style=&quot;color: rgba(0 , 0 , 0 , 0) ; font-family: monospace ; font-size: 0px ; white-space: nowrap&quot;&gt;%3CmxGraphModel%3E%3Croot%3E%3CmxCell%20id%3D%220%22%2F%3E%3CmxCell%20id%3D%221%22%20parent%3D%220%22%2F%3E%3CmxCell%20id%3D%222%22%20value%3D%22%26lt%3Bfont%20style%3D%26quot%3Bfont-size%3A%2020px%26quot%3B%26gt%3Bs%26lt%3B%2Ffont%26gt%3B%22%20style%3D%22text%3Bhtml%3D1%3BstrokeColor%3Dnone%3BfillColor%3Dnone%3Balign%3Dcenter%3BverticalAlign%3Dmiddle%3BwhiteSpace%3Dwrap%3Brounded%3D0%3B%22%20vertex%3D%221%22%20parent%3D%221%22%3E%3CmxGeometry%20x%3D%22300%22%20y%3D%22170%22%20width%3D%2240%22%20height%3D%2220%22%20as%3D%22geometry%22%2F%3E%3C%2FmxCell%3E%3C%2Froot%3E%3C%2FmxGraph&lt;/span&gt;" style="text;html=1;strokeColor=none;fillColor=none;align=center;verticalAlign=middle;whiteSpace=wrap;rounded=0;" parent="1" vertex="1">
          <mxGeometry x="630" y="130" width="40" height="20" as="geometry"/>
        </mxCell>
        <mxCell id="5rpIBblbzFWk3r73EX7g-40" value="&lt;font style=&quot;font-size: 20px&quot;&gt;s_4&lt;/font&gt;&lt;span style=&quot;color: rgba(0 , 0 , 0 , 0) ; font-family: monospace ; font-size: 0px ; white-space: nowrap&quot;&gt;%3CmxGraphModel%3E%3Croot%3E%3CmxCell%20id%3D%220%22%2F%3E%3CmxCell%20id%3D%221%22%20parent%3D%220%22%2F%3E%3CmxCell%20id%3D%222%22%20value%3D%22%26lt%3Bfont%20style%3D%26quot%3Bfont-size%3A%2020px%26quot%3B%26gt%3Bs%26lt%3B%2Ffont%26gt%3B%22%20style%3D%22text%3Bhtml%3D1%3BstrokeColor%3Dnone%3BfillColor%3Dnone%3Balign%3Dcenter%3BverticalAlign%3Dmiddle%3BwhiteSpace%3Dwrap%3Brounded%3D0%3B%22%20vertex%3D%221%22%20parent%3D%221%22%3E%3CmxGeometry%20x%3D%22300%22%20y%3D%22170%22%20width%3D%2240%22%20height%3D%2220%22%20as%3D%22geometry%22%2F%3E%3C%2FmxCell%3E%3C%2Froot%3E%3C%2FmxGraph&lt;/span&gt;" style="text;html=1;strokeColor=none;fillColor=none;align=center;verticalAlign=middle;whiteSpace=wrap;rounded=0;" parent="1" vertex="1">
          <mxGeometry x="740" y="170" width="40" height="20" as="geometry"/>
        </mxCell>
        <mxCell id="5rpIBblbzFWk3r73EX7g-45" value="&lt;font style=&quot;font-size: 20px&quot;&gt;a_3&lt;/font&gt;&lt;span style=&quot;color: rgba(0 , 0 , 0 , 0) ; font-family: monospace ; font-size: 0px ; white-space: nowrap&quot;&gt;%3CmxGraphModel%3E%3Croot%3E%3CmxCell%20id%3D%220%22%2F%3E%3CmxCell%20id%3D%221%22%20parent%3D%220%22%2F%3E%3CmxCell%20id%3D%222%22%20value%3D%22%26lt%3Bfont%20style%3D%26quot%3Bfont-size%3A%2020px%26quot%3B%26gt%3Bs%26lt%3B%2Ffont%26gt%3B%22%20style%3D%22text%3Bhtml%3D1%3BstrokeColor%3Dnone%3BfillColor%3Dnone%3Balign%3Dcenter%3BverticalAlign%3Dmiddle%3BwhiteSpace%3Dwrap%3Brounded%3D0%3B%22%20vertex%3D%221%22%20parent%3D%221%22%3E%3CmxGeometry%20x%3D%22300%22%20y%3D%22170%22%20width%3D%2240%22%20height%3D%2220%22%20as%3D%22geometry%22%2F%3E%3C%2FmxCell%3E%3C%2Froot%3E%3C%2FmxGraphModel%32&lt;/span&gt;" style="text;html=1;strokeColor=none;fillColor=none;align=center;verticalAlign=middle;whiteSpace=wrap;rounded=0;" parent="1" vertex="1">
          <mxGeometry x="680" y="180" width="30" height="20" as="geometry"/>
        </mxCell>
        <mxCell id="5rpIBblbzFWk3r73EX7g-47" value="&lt;font style=&quot;font-size: 20px&quot; color=&quot;#ff3333&quot;&gt;r_1&lt;/font&gt;" style="text;html=1;strokeColor=none;fillColor=none;align=center;verticalAlign=middle;whiteSpace=wrap;rounded=0;" parent="1" vertex="1">
          <mxGeometry x="510" y="120" width="40" height="20" as="geometry"/>
        </mxCell>
        <mxCell id="5rpIBblbzFWk3r73EX7g-48" value="&lt;font style=&quot;font-size: 20px&quot; color=&quot;#ff3333&quot;&gt;r&lt;/font&gt;" style="text;html=1;strokeColor=none;fillColor=none;align=center;verticalAlign=middle;whiteSpace=wrap;rounded=0;" parent="1" vertex="1">
          <mxGeometry x="360" y="120" width="40" height="20" as="geometry"/>
        </mxCell>
        <mxCell id="5rpIBblbzFWk3r73EX7g-50" value="&lt;font style=&quot;font-size: 20px&quot; color=&quot;#ff3333&quot;&gt;r_2&lt;/font&gt;" style="text;html=1;strokeColor=none;fillColor=none;align=center;verticalAlign=middle;whiteSpace=wrap;rounded=0;" parent="1" vertex="1">
          <mxGeometry x="590" y="120" width="40" height="20" as="geometry"/>
        </mxCell>
        <mxCell id="5rpIBblbzFWk3r73EX7g-51" value="&lt;font style=&quot;font-size: 20px&quot; color=&quot;#ff3333&quot;&gt;r_3&lt;/font&gt;" style="text;html=1;strokeColor=none;fillColor=none;align=center;verticalAlign=middle;whiteSpace=wrap;rounded=0;" parent="1" vertex="1">
          <mxGeometry x="730" y="120" width="40" height="20" as="geometry"/>
        </mxCell>
        <mxCell id="5rpIBblbzFWk3r73EX7g-54" value="" style="curved=1;endArrow=classic;html=1;strokeColor=#FF3333;" parent="1" edge="1">
          <mxGeometry width="50" height="50" relative="1" as="geometry">
            <mxPoint x="500" y="185" as="sourcePoint"/>
            <mxPoint x="510" y="135" as="targetPoint"/>
            <Array as="points">
              <mxPoint x="510" y="185"/>
              <mxPoint x="490" y="155"/>
            </Array>
          </mxGeometry>
        </mxCell>
        <mxCell id="5rpIBblbzFWk3r73EX7g-55" value="" style="ellipse;whiteSpace=wrap;html=1;fillColor=none;rotation=-15;strokeColor=#007FFF;" parent="1" vertex="1">
          <mxGeometry x="290" y="120" width="180" height="100" as="geometry"/>
        </mxCell>
        <mxCell id="5rpIBblbzFWk3r73EX7g-57" value="&lt;font style=&quot;font-size: 20px&quot; color=&quot;#007fff&quot;&gt;sample&lt;/font&gt;" style="text;html=1;strokeColor=none;fillColor=none;align=center;verticalAlign=middle;whiteSpace=wrap;rounded=0;" parent="1" vertex="1">
          <mxGeometry x="370" y="220" width="40" height="20" as="geometry"/>
        </mxCell>
        <mxCell id="NPPoHmPYY1M1KvYjJq8C-1" value="" style="endArrow=classic;html=1;" parent="1" edge="1">
          <mxGeometry width="50" height="50" relative="1" as="geometry">
            <mxPoint x="230" y="470" as="sourcePoint"/>
            <mxPoint x="320" y="430" as="targetPoint"/>
          </mxGeometry>
        </mxCell>
        <mxCell id="NPPoHmPYY1M1KvYjJq8C-2" value="" style="ellipse;whiteSpace=wrap;html=1;aspect=fixed;" parent="1" vertex="1">
          <mxGeometry x="210" y="460" width="20" height="20" as="geometry"/>
        </mxCell>
        <mxCell id="NPPoHmPYY1M1KvYjJq8C-3" value="" style="ellipse;whiteSpace=wrap;html=1;aspect=fixed;" parent="1" vertex="1">
          <mxGeometry x="320" y="420" width="20" height="20" as="geometry"/>
        </mxCell>
        <mxCell id="NPPoHmPYY1M1KvYjJq8C-4" value="" style="endArrow=classic;html=1;" parent="1" edge="1">
          <mxGeometry width="50" height="50" relative="1" as="geometry">
            <mxPoint x="340" y="430" as="sourcePoint"/>
            <mxPoint x="430" y="390" as="targetPoint"/>
          </mxGeometry>
        </mxCell>
        <mxCell id="NPPoHmPYY1M1KvYjJq8C-5" value="" style="endArrow=classic;html=1;" parent="1" edge="1">
          <mxGeometry width="50" height="50" relative="1" as="geometry">
            <mxPoint x="340" y="430" as="sourcePoint"/>
            <mxPoint x="430" y="470" as="targetPoint"/>
          </mxGeometry>
        </mxCell>
        <mxCell id="NPPoHmPYY1M1KvYjJq8C-6" value="" style="endArrow=classic;html=1;" parent="1" edge="1">
          <mxGeometry width="50" height="50" relative="1" as="geometry">
            <mxPoint x="340" y="430" as="sourcePoint"/>
            <mxPoint x="430" y="430" as="targetPoint"/>
          </mxGeometry>
        </mxCell>
        <mxCell id="NPPoHmPYY1M1KvYjJq8C-7" value="&lt;font style=&quot;font-size: 20px&quot;&gt;возможные действия&lt;/font&gt;" style="text;html=1;strokeColor=none;fillColor=none;align=center;verticalAlign=middle;whiteSpace=wrap;rounded=0;" parent="1" vertex="1">
          <mxGeometry x="340" y="340" width="100" height="50" as="geometry"/>
        </mxCell>
        <mxCell id="NPPoHmPYY1M1KvYjJq8C-8" value="&lt;font style=&quot;font-size: 20px&quot;&gt;s_1&lt;/font&gt;&lt;span style=&quot;color: rgba(0 , 0 , 0 , 0) ; font-family: monospace ; font-size: 0px ; white-space: nowrap&quot;&gt;%3CmxGraphModel%3E%3Croot%3E%3CmxCell%20id%3D%220%22%2F%3E%3CmxCell%20id%3D%221%22%20parent%3D%220%22%2F%3E%3CmxCell%20id%3D%222%22%20value%3D%22%26lt%3Bfont%20style%3D%26quot%3Bfont-size%3A%2020px%26quot%3B%26gt%3Bs%26lt%3B%2Ffont%26gt%3B%22%20style%3D%22text%3Bhtml%3D1%3BstrokeColor%3Dnone%3BfillColor%3Dnone%3Balign%3Dcenter%3BverticalAlign%3Dmiddle%3BwhiteSpace%3Dwrap%3Brounded%3D0%3B%22%20vertex%3D%221%22%20parent%3D%221%22%3E%3CmxGeometry%20x%3D%22300%22%20y%3D%22170%22%20width%3D%2240%22%20height%3D%2220%22%20as%3D%22geometry%22%2F%3E%3C%2FmxCell%3E%3C%2Froot%3E%3C%2FmxGraphModel%2&lt;/span&gt;" style="text;html=1;strokeColor=none;fillColor=none;align=center;verticalAlign=middle;whiteSpace=wrap;rounded=0;" parent="1" vertex="1">
          <mxGeometry x="315" y="400" width="30" height="20" as="geometry"/>
        </mxCell>
        <mxCell id="NPPoHmPYY1M1KvYjJq8C-9" value="&lt;font style=&quot;font-size: 20px&quot;&gt;s&lt;/font&gt;&lt;span style=&quot;color: rgba(0 , 0 , 0 , 0) ; font-family: monospace ; font-size: 0px ; white-space: nowrap&quot;&gt;%3CmxGraphModel%3E%3Croot%3E%3CmxCell%20id%3D%220%22%2F%3E%3CmxCell%20id%3D%221%22%20parent%3D%220%22%2F%3E%3CmxCell%20id%3D%222%22%20value%3D%22%26lt%3Bfont%20style%3D%26quot%3Bfont-size%3A%2020px%26quot%3B%26gt%3Bs%26lt%3B%2Ffont%26gt%3B%22%20style%3D%22text%3Bhtml%3D1%3BstrokeColor%3Dnone%3BfillColor%3Dnone%3Balign%3Dcenter%3BverticalAlign%3Dmiddle%3BwhiteSpace%3Dwrap%3Brounded%3D0%3B%22%20vertex%3D%221%22%20parent%3D%221%22%3E%3CmxGeometry%20x%3D%22300%22%20y%3D%22170%22%20width%3D%2240%22%20height%3D%2220%22%20as%3D%22geometry%22%2F%3E%3C%2FmxCell%3E%3C%2Froot%3E%3C%2FmxGraphMo&lt;/span&gt;" style="text;html=1;strokeColor=none;fillColor=none;align=center;verticalAlign=middle;whiteSpace=wrap;rounded=0;" parent="1" vertex="1">
          <mxGeometry x="210" y="440" width="20" height="20" as="geometry"/>
        </mxCell>
        <mxCell id="NPPoHmPYY1M1KvYjJq8C-10" value="&lt;span style=&quot;font-size: 20px&quot;&gt;a&lt;/span&gt;" style="text;html=1;strokeColor=none;fillColor=none;align=center;verticalAlign=middle;whiteSpace=wrap;rounded=0;" parent="1" vertex="1">
          <mxGeometry x="270" y="450" width="20" height="20" as="geometry"/>
        </mxCell>
        <mxCell id="NPPoHmPYY1M1KvYjJq8C-13" value="" style="curved=1;endArrow=classic;html=1;strokeColor=#FF3333;" parent="1" edge="1">
          <mxGeometry width="50" height="50" relative="1" as="geometry">
            <mxPoint x="270" y="450" as="sourcePoint"/>
            <mxPoint x="280" y="400" as="targetPoint"/>
            <Array as="points">
              <mxPoint x="280" y="450"/>
              <mxPoint x="260" y="420"/>
            </Array>
          </mxGeometry>
        </mxCell>
        <mxCell id="NPPoHmPYY1M1KvYjJq8C-14" value="&lt;font style=&quot;font-size: 20px&quot; color=&quot;#ff3333&quot;&gt;r&lt;/font&gt;" style="text;html=1;strokeColor=none;fillColor=none;align=center;verticalAlign=middle;whiteSpace=wrap;rounded=0;" parent="1" vertex="1">
          <mxGeometry x="280" y="390" width="20" height="20" as="geometry"/>
        </mxCell>
        <mxCell id="NPPoHmPYY1M1KvYjJq8C-15" value="&lt;span style=&quot;font-size: 20px&quot;&gt;Q(s_1, a_0)&lt;/span&gt;" style="text;html=1;strokeColor=none;fillColor=none;align=center;verticalAlign=middle;whiteSpace=wrap;rounded=0;" parent="1" vertex="1">
          <mxGeometry x="430" y="380" width="120" height="30" as="geometry"/>
        </mxCell>
        <mxCell id="NPPoHmPYY1M1KvYjJq8C-16" value="&lt;span style=&quot;font-size: 20px&quot;&gt;Q(s_2, a_1)&lt;/span&gt;" style="text;html=1;strokeColor=none;fillColor=none;align=center;verticalAlign=middle;whiteSpace=wrap;rounded=0;" parent="1" vertex="1">
          <mxGeometry x="430" y="415" width="120" height="30" as="geometry"/>
        </mxCell>
        <mxCell id="NPPoHmPYY1M1KvYjJq8C-17" value="&lt;span style=&quot;font-size: 20px&quot;&gt;Q(s_3, a_1)&lt;/span&gt;" style="text;html=1;strokeColor=none;fillColor=none;align=center;verticalAlign=middle;whiteSpace=wrap;rounded=0;" parent="1" vertex="1">
          <mxGeometry x="430" y="455" width="120" height="30" as="geometry"/>
        </mxCell>
        <mxCell id="NPPoHmPYY1M1KvYjJq8C-18" value="" style="shape=flexArrow;endArrow=classic;html=1;strokeColor=#007FFF;" parent="1" edge="1">
          <mxGeometry width="50" height="50" relative="1" as="geometry">
            <mxPoint x="389.5" y="250" as="sourcePoint"/>
            <mxPoint x="389.5" y="340" as="targetPoint"/>
          </mxGeometry>
        </mxCell>
      </root>
    </mxGraphModel>
  </diagram>
</mxfile>
